<?xml version="1.0" encoding="utf-8"?>
<!-- Generator: Adobe Illustrator 24.3.0, SVG Export Plug-In . SVG Version: 6.00 Build 0)  -->
<svg version="1.1" id="Layer_1" xmlns="http://www.w3.org/2000/svg" xmlns:xlink="http://www.w3.org/1999/xlink" x="0px" y="0px"
	 width="700px" height="350px" viewBox="0 0 700 350" enable-background="new 0 0 700 350" xml:space="preserve">
<g opacity="5.000000e-02">
	<g>
		<path d="M1.2,153.8c0,0.1,0,0.3-0.1,0.4c-0.1,0.5,0.3,1.1,0.8,1.2s1.1-0.3,1.2-0.8c0.4-2.5,2.9-4.1,5.4-3.7s4.3,2.8,3.8,5.3
			c-0.1,0.5,0.3,1.1,0.8,1.2c0,0,0.1,0,0.1,0c0,0,0,0,0.1,0c0.5,0.1,1.1-0.3,1.2-0.8c0-0.2,0.1-0.3,0.1-0.5c0-0.1,0-0.3,0.1-0.4
			c0,0,0,0,0,0c2.1-5,9.9-2.7,9,2.6c-0.1,0.5,0.3,1.1,0.8,1.2c0,0,0.1,0,0.1,0c0,0,0,0,0.1,0c0.5,0.1,1.1-0.3,0.8-0.9l1.1-0.7l0-0.2
			c0,0,1.6-2.7,3.5-2.7l-4.4,24.7l-2.3-0.4c-0.4-0.1-0.8,0.2-0.8,0.6l-1.7,9.4c-0.1,0.8,0.1,1.6,0.7,2.1c2.5,2.5,5.9,1.1,6.3-1.4
			l1.5-8.7c0,0-0.1-1-0.7-1.1l-1.1-0.2l4.4-24.7c0,0,2.6,2.2,3.4,4l0,0.2c-0.6,0.2-0.7,0.5-0.8,0.8c-0.1,0.5,0.3,1.1,0.8,0.9l0,0
			c0,0.3,0,0.3,0,0.3c0,0,0.1,0,0.1,0c0.5,0.1,1.1-0.3,1.2-0.8c0.9-5.3,9-4.8,9.3,0.6c0,0,0,0,0,0.1c-0.1,0.3-0.1,0.6-0.2,0.9
			c-0.1,0.5,0.2,1.1,0.8,1.2c0,0,0,0,0,0c0,0,0,0,0.1,0c0,0,0,0,0.1,0c0.5,0.1,1.1-0.3,1.2-0.8c0.4-2.5,2.9-4.1,5.4-3.7
			c2.6,0.5,4.3,2.8,3.8,5.3c-0.1,0.5,0.7,1.8,0.7,1.8l0,0c0,0,1.1-0.9,1.3-1.4c0.1-0.3,0.1-0.7,0.2-1c2.8-16-7.9-31.3-23.9-34
			l-0.1,0c-16-2.9-31.3,7.8-34.1,23.8C1.2,153.5,1.2,153.6,1.2,153.8z M26,189.5c0,0.7-0.6,1.2-1.4,1.1c-0.7-0.1-1.2-0.8-1.6-1.6
			l1.3-7.6l3,0.5L26,189.5z M15.4,151.8c3-11.3,9.8-19.6,16.8-20.5c-3,3.9-5.8,13.2-7.7,22.6C22.6,150.8,18.6,149.9,15.4,151.8z
			 M26.6,153.8c3-14.7,6.9-22.3,8.6-22.4c1.4,0.7,2.5,9.2,0.3,24C33.3,152.7,29.5,152,26.6,153.8z M37.3,156.1
			c1.4-9.4,1.9-19.1,0.5-23.8c6.3,3.2,9.8,13.4,8.8,25C44.3,154.4,40.2,154,37.3,156.1z M57.8,159.2c-2.3-2.8-6.4-3.4-9.3-1.1
			c1-9.9-1.2-18.9-5.5-24.1C52.2,138.8,58.2,148.6,57.8,159.2z M26.8,131.1c-5.9,3.4-11,11.1-13.4,20.8c-2-3.1-6.1-4-9.2-2.1
			C7.5,139.7,16.4,132.5,26.8,131.1z"/>
	</g>
</g>
<g opacity="5.000000e-02">
	<g>
		<path d="M114.3,245.5H159c5.2,0,10.3-4.2,10.9-9.3c0.5-4.2-1.4-8.2-4.9-10.3c1.1-2.2,1.7-4.7,1.7-7.3c0-9-7.4-16.4-16.4-16.4
			c-8.1,0-14.9,5.9-16.2,13.7c-1.9-0.8-4-1.2-6.1-1.2c-6.3,0-12,3.8-14.6,9.5c-6.3,0.3-11.1,5.9-10.1,12.4
			C104.3,241.8,109,245.5,114.3,245.5z M150.3,203.9c7.8,0,14.2,6.4,14.2,14.2c0,2.2-0.5,4.3-1.5,6.3c-3.4-1.2-7.3-0.7-10.2,1.4
			c-3-2.2-6.7-2.7-10-1.5c-1.3-3.3-3.6-6-6.6-7.8C137.1,209.3,143.1,203.9,150.3,203.9z M106.7,231.3c1.1-3.4,4.4-5.6,7.9-5.7l0,0
			c0,0,0.1,0,0.1,0c0.5,0.1,0.9-0.2,1.1-0.7c2-5.1,7-8.6,12.5-8.6c5.9,0,11.1,3.9,12.8,9.4c0.2,0.6,0.9,0.9,1.5,0.6
			c2.9-1.4,6.6-1,9.1,1.3c0.4,0.4,1.1,0.4,1.5,0c2.5-2.2,6.3-2.7,9.2-1.2c2.8,1.4,4.6,4.3,4.5,7.5c-0.1,4.5-4.1,8.1-8.6,8.1h-43.8
			C109.2,242.2,105,237,106.7,231.3z"/>
		<path d="M150.1,191.9v3.4c0,0.6,0.5,1.1,1.1,1.1c0.6,0,1.1-0.5,1.1-1.1v-3.4c0-0.6-0.5-1.1-1.1-1.1
			C150.5,190.8,150.1,191.3,150.1,191.9z"/>
		<path d="M160.7,194.2l-1.7,3c-0.3,0.5-0.1,1.2,0.4,1.5c0.5,0.3,1.2,0.1,1.5-0.4l1.7-3c0.3-0.5,0.1-1.2-0.4-1.5
			C161.7,193.5,161,193.7,160.7,194.2z"/>
		<path d="M170.6,202.2c-0.3-0.5-1-0.7-1.5-0.4l-3,1.7c-0.5,0.3-0.7,1-0.4,1.5c0.3,0.5,1,0.7,1.5,0.4l3-1.7
			C170.7,203.4,170.9,202.8,170.6,202.2z"/>
		<path d="M169.2,214.7h3.4c0.6,0,1.1-0.5,1.1-1.1c0-0.6-0.5-1.1-1.1-1.1h-3.4c-0.6,0-1.1,0.5-1.1,1.1
			C168.1,214.2,168.6,214.7,169.2,214.7z"/>
		<path d="M132.4,201.8c-0.5-0.3-1.2-0.1-1.5,0.4c-0.3,0.5-0.1,1.2,0.4,1.5l3,1.7c0.5,0.3,1.2,0.1,1.5-0.4c0.3-0.5,0.1-1.2-0.4-1.5
			L132.4,201.8z"/>
		<path d="M140.6,198.3c0.3,0.5,1,0.7,1.5,0.4c0.5-0.3,0.7-1,0.4-1.5l-1.7-3c-0.3-0.5-1-0.7-1.5-0.4c-0.5,0.3-0.7,1-0.4,1.5
			L140.6,198.3z"/>
	</g>
</g>
<g opacity="5.000000e-02">
	<g>
		<path d="M98.7,2.7c0.3-4.8-5-7.7-8.9-5.2c-1.4-0.9-3.1-1.2-4.7-0.8c-1.3-2.9-4.3-4.9-7.6-4.9c-3.2,0-6.1,1.9-7.5,4.7
			c-3.3,0.3-5.9,3.5-5,7C65.7,6.2,68.2,8,70.9,8c5.3,0,16.3,0,22,0C95.8,8,98.5,5.6,98.7,2.7z M70.8,6c-1.6,0-3.1-1-3.6-2.5
			c-0.8-2.6,1.1-4.9,3.6-4.9c0.4,0,0.8-0.2,1-0.6c0.6-1.4,1.5-2.7,2.8-3.3c4-2,8,0.2,9.1,3.7c0.1,0.3,0.3,0.5,0.6,0.6
			c0.3,0.1,0.6,0.1,0.8,0c1.3-0.6,3-0.4,4.1,0.6c0.4,0.3,1,0.4,1.3,0c2.4-2.2,6.4-0.4,6.2,3c-0.1,2-1.9,3.5-3.9,3.5L70.8,6z"/>
		<path d="M101.1-22l21.9,0c2.7,0,5.2-1.8,5.8-4.4c0.8-3.6-1.7-6.7-5-7c-1.4-2.8-4.3-4.7-7.5-4.7c-3.3,0-6.2,2-7.6,4.9
			c-1.5-0.4-3.3-0.1-4.7,0.8c-3.9-2.6-9.2,0.4-8.9,5.2C95.4-24.4,98.2-22,101.1-22z M103.4-30.5c0.4,0.3,1,0.3,1.4,0
			c1.1-1,2.8-1.2,4.1-0.6c0.3,0.1,0.6,0.1,0.8,0c0.3-0.1,0.5-0.3,0.6-0.6c1.1-3.5,5.1-5.7,9.1-3.7c1.4,0.7,2.2,2,2.8,3.4
			c0.2,0.4,0.6,0.6,1.1,0.6c2.4,0,4.3,2.4,3.5,4.9c-0.5,1.5-2,2.5-3.6,2.5l-20.6,0c-3.5,0-5.2-1.5-5.4-3.4
			C97-30.8,100.9-32.7,103.4-30.5z"/>
		<path d="M69-4.9c0.6,0,1-0.4,1-1v-20c0-12.9,9.9-23.9,22.8-24.7c7-0.4,13.6,2.1,18.5,7c1.1,1.1,2,2.2,2.8,3.4
			c0.3,0.5,0.9,0.6,1.4,0.3c0.5-0.3,0.6-0.9,0.3-1.4c-0.9-1.3-1.9-2.5-3.1-3.7c-5.3-5.3-12.5-8.1-20.1-7.6
			C78.7-51.8,68-39.8,68-25.8v19.9C68-5.3,68.4-4.9,69-4.9z"/>
		<path d="M73-25.9c0-10.3,8.3-19.8,18.5-20.7c7.1-0.6,13.7,2.4,18,7.9c0.3,0.4,1,0.5,1.4,0.2c0.4-0.3,0.5-1,0.2-1.4
			c-4.7-6.1-12-9.4-19.7-8.7C80.1-47.7,71-37.2,71-25.9l0,16.6c0,0.6,0.4,1,1,1s1-0.4,1-1L73-25.9z"/>
		<path d="M76-9.5c0.6,0,1-0.4,1-1v-15.9c0-9.1,7.4-16.5,16.5-16.5c5.2,0,10.1,2.5,13.2,6.6c0.3,0.4,1,0.5,1.4,0.2
			c0.4-0.3,0.5-1,0.2-1.4c-3.5-4.7-9-7.4-14.8-7.4C83.3-44.9,75-36.6,75-26.4v15.9C75-9.9,75.4-9.5,76-9.5z"/>
		<path d="M80-9.3c0.6,0,1-0.4,1-1v-16.1c0-8.8,9.1-15.5,18.4-11.3c1.3,0.6,2.4,1.6,3.4,2.7c0.4,0.4,1,0.4,1.4,0
			c0.4-0.4,0.4-1,0-1.4c-2.7-2.9-6.6-4.6-10.6-4.6c-8,0-14.6,6.5-14.6,14.6v16.1C79-9.7,79.4-9.3,80-9.3z"/>
	</g>
</g>
<g opacity="5.000000e-02">
	<g>
		<path d="M258.8,255.8c0,0.6,0.4,1,0.9,1.1l3.5,0.3l-2.7,2.3c-0.4,0.4-0.5,1-0.1,1.4c0.4,0.4,1,0.5,1.4,0.1l2.7-2.3l-0.3,3.5
			c0,0.6,0.4,1,0.9,1.1s1-0.4,1.1-0.9l0.3-3.5l2.3,2.7c0.4,0.4,1,0.5,1.4,0.1c0.4-0.4,0.5-1,0.1-1.4l-2.3-2.7l3.5,0.3
			c0.6,0,1-0.4,1.1-0.9c0-0.6-0.4-1-0.9-1.1l-3.5-0.3l2.7-2.3c0.4-0.4,0.5-1,0.1-1.4c-0.4-0.4-1-0.5-1.4-0.1l-2.7,2.3l0.3-3.5
			c0-0.6-0.4-1-0.9-1.1s-1,0.4-1.1,0.9l-0.3,3.5l-2.3-2.7c-0.4-0.4-1-0.5-1.4-0.1s-0.5,1-0.1,1.4l2.3,2.7l-3.5-0.3
			C259.4,254.9,258.9,255.3,258.8,255.8z"/>
		<path d="M295.3,275.1c0,0.6,0.4,1,0.9,1.1l3.5,0.3l-2.7,2.3c-0.4,0.4-0.5,1-0.1,1.4c0.4,0.4,1,0.5,1.4,0.1l2.7-2.3l-0.3,3.5
			c0,0.6,0.4,1,0.9,1.1c0.6,0,1-0.4,1.1-0.9l0.3-3.5l2.3,2.7c0.4,0.4,1,0.5,1.4,0.1s0.5-1,0.1-1.4l-2.3-2.7l3.5,0.3
			c0.6,0,1-0.4,1.1-0.9c0-0.6-0.4-1-0.9-1.1l-3.5-0.3l2.7-2.3c0.4-0.4,0.5-1,0.1-1.4c-0.4-0.4-1-0.5-1.4-0.1l-2.7,2.3l0.3-3.5
			c0-0.6-0.4-1-0.9-1.1c-0.6,0-1,0.4-1.1,0.9l-0.3,3.5l-2.3-2.7c-0.4-0.4-1-0.5-1.4-0.1c-0.4,0.4-0.5,1-0.1,1.4l2.3,2.7l-3.5-0.3
			C295.8,274.1,295.3,274.5,295.3,275.1z"/>
		<path d="M287.2,285.8c1.5-17.5,0.3-3.2,3-34.1c0.3-3.2-2-6.2-5.4-6.5c-3.3-0.3-6.3,2.4-6.6,5.7l-3,33.8c-4.2,1.9-7.1,5.9-7.3,10.6
			c-0.3,6.4,4.5,12.1,10.8,12.9c7,0.9,13.3-4.2,13.9-11.2C293,292.7,290.9,288.3,287.2,285.8z M284.3,306.3
			c-10.6,3.9-19.5-8.5-10.9-18c0.8-0.8,1.8-1.2,3-1.4c0.5-0.1,0.8-0.5,0.8-0.9l1-11.4l2.3,0.2c0.6,0,1-0.4,1.1-0.9
			c0-0.6-0.4-1-0.9-1.1l-2.3-0.2l0.4-5l2.3,0.2c0.6,0,1-0.4,1.1-0.9s-0.4-1-0.9-1.1l-2.3-0.2l0.4-5l2.3,0.2c0.6,0,1-0.4,1.1-0.9
			c0-0.6-0.4-1-0.9-1.1l-2.3-0.2l0.5-6l2.3,0.2c0.6,0,1-0.4,1.1-0.9c0-0.6-0.4-1-0.9-1.1l-2.3-0.2l0,0.2c0.2-2.2,2-4,4.2-3.9
			c2.4,0.1,4,2.2,3.8,4.4l-0.3,2.9l-2.2-0.2c-0.5,0-1,0.4-1.1,0.9c0,0.6,0.4,1,0.9,1.1l2.2,0.2l-0.3,3l-2.2-0.2
			c-0.6,0-1,0.4-1.1,0.9c0,0.6,0.4,1,0.9,1.1l2.2,0.2l-0.3,4l-2.2-0.2c-0.6,0-1,0.4-1.1,0.9c0,0.6,0.4,1,0.9,1.1l2.2,0.2l-0.3,4
			l-2.2-0.2c-0.5,0-1,0.4-1.1,0.9c0,0.6,0.4,1,0.9,1.1l2.2,0.2l-1.2,13.6c0,0.3,0.1,0.6,0.4,0.7c5.6,3.3,7.3,11.6,1.4,17.2
			C286.1,305.4,285.2,306,284.3,306.3z"/>
		<path d="M281.9,289.2l0.9-10.6c0-0.6-0.4-1-0.9-1.1c-0.6,0-1,0.4-1.1,0.9l-0.9,10.6c-3.6,0.2-6.7,2.9-7,6.6
			c-0.3,4,2.7,7.5,6.7,7.9c4.1,0.4,7.6-2.6,8-6.6C288,293.2,285.5,290,281.9,289.2z M279.4,301.4c-3-0.3-5.2-2.8-4.9-5.7
			c0.3-2.9,2.9-5,5.8-4.7c3,0.3,5.2,2.8,4.9,5.7C285,299.6,282.4,301.7,279.4,301.4z"/>
	</g>
</g>
<g opacity="5.000000e-02">
	<g>
		<path d="M331.7,31.5c-3.1-1.5-5.3-2.1-8.1-1.7c-1.4-4.4-5.5-7.5-10.2-7.5c-1.6,0-3.2,0.4-4.7,1.1c-2.6-7.3-11.5-11.2-19.7-5.9
			c-0.5,0.3-0.9,0.7-1.3,1.1c-2.8,3.4-3.9,7.4-3.2,11.2c-0.3,0-0.6,0-1,0c-9.1,0-15.7,11-7.2,20.4c1.1,1.2,2.6,1.9,4.2,1.9h44.7
			c8.5,0,14.9-9.6,8.6-18.6C333.4,32.6,332.6,32,331.7,31.5z M325.3,50l-41.5,0c-4.6,0-8.7-3.2-9.3-7.8c-0.8-5.6,3.5-10.5,9-10.5
			c0.7,0,1.4,0.1,2.1,0.2c0.3,0.1,0.7,0,1-0.3c0.2-0.3,0.3-0.6,0.2-1c-0.5-1.7-0.6-3.4-0.3-5.2c1-5.1,5.7-8.7,10.9-8.5
			c4.7,0.3,8.6,3.5,9.7,8.1c0.1,0.3,0.3,0.6,0.6,0.7c0.3,0.1,0.6,0.1,0.9-0.1c1.4-0.9,3.1-1.4,4.8-1.4c4.1,0,7.7,2.9,8.5,6.9
			c0.1,0.3,0.2,0.5,0.4,0.6c0.2,0.1,0.5,0.2,0.8,0.1c1.2-0.3,2.2-0.3,3.2-0.2c4.4,0.6,7.9,4.3,8.1,8.7C334.6,45.7,330.5,50,325.3,50
			z"/>
		<path d="M285.3,55.9l-7.4,8.4c-0.4,0.4-0.3,1,0.1,1.4c0.4,0.4,1,0.3,1.4-0.1l7.4-8.4c0.4-0.4,0.3-1-0.1-1.4
			C286.3,55.5,285.6,55.5,285.3,55.9z"/>
		<path d="M305,65.1l-7.4,8.4c-0.4,0.4-0.3,1,0.1,1.4c0.4,0.4,1,0.3,1.4-0.1l7.4-8.4c0.4-0.4,0.3-1-0.1-1.4
			C306,64.7,305.3,64.7,305,65.1z"/>
		<path d="M317.8,76.1c0.4,0.4,1,0.3,1.4-0.1l7.4-8.4c0.4-0.4,0.3-1-0.1-1.4c-0.4-0.4-1-0.3-1.4,0.1l-7.4,8.4
			C317.3,75.1,317.4,75.7,317.8,76.1z"/>
		<path d="M319.7,56.8l-7.4,8.4c-0.4,0.4-0.3,1,0.1,1.4c0.4,0.4,1,0.3,1.4-0.1l7.4-8.4c0.4-0.4,0.3-1-0.1-1.4
			C320.7,56.3,320,56.4,319.7,56.8z"/>
		<path d="M295.7,60.1L282,74.6c-0.4,0.4-0.4,1,0,1.4c0.4,0.4,1,0.4,1.4,0l13.7-14.6c0.4-0.4,0.4-1,0-1.4
			C296.7,59.7,296.1,59.7,295.7,60.1z"/>
	</g>
</g>
<g opacity="5.000000e-02">
	<g>
		<path d="M96.9,352.4c0.3-4.8-5-7.7-8.9-5.2c-1.4-0.9-3.1-1.2-4.7-0.8c-1.3-2.9-4.3-4.9-7.6-4.9c-3.2,0-6.1,1.9-7.5,4.7
			c-3.3,0.3-5.9,3.5-5,7c0.6,2.6,3.1,4.4,5.8,4.4c5.3,0,16.3,0,22,0C94,357.7,96.7,355.4,96.9,352.4z M69,355.7
			c-1.6,0-3.1-1-3.6-2.5c-0.8-2.6,1.1-4.9,3.6-4.9c0.4,0,0.8-0.2,1-0.6c0.6-1.4,1.5-2.7,2.8-3.3c4-2,8,0.2,9.1,3.7
			c0.1,0.3,0.3,0.5,0.6,0.6c0.3,0.1,0.6,0.1,0.8,0c1.3-0.6,3-0.4,4.1,0.6c0.4,0.3,1,0.4,1.3,0c2.4-2.2,6.4-0.4,6.2,3
			c-0.1,2-1.9,3.5-3.9,3.5H69z"/>
		<path d="M99.3,327.7h21.9c2.7,0,5.2-1.8,5.8-4.4c0.8-3.6-1.7-6.7-5-7c-1.4-2.8-4.3-4.7-7.5-4.7c-3.3,0-6.2,2-7.6,4.9
			c-1.5-0.4-3.3-0.1-4.7,0.8c-3.9-2.6-9.2,0.4-8.9,5.2C93.6,325.4,96.4,327.7,99.3,327.7z M101.6,319.3c0.4,0.3,1,0.3,1.4,0
			c1.1-1,2.8-1.2,4.1-0.6c0.3,0.1,0.6,0.1,0.8,0c0.3-0.1,0.5-0.3,0.6-0.6c1.1-3.5,5.1-5.7,9.1-3.7c1.4,0.7,2.2,2,2.8,3.4
			c0.2,0.4,0.6,0.6,1.1,0.6c2.4,0,4.3,2.4,3.5,4.9c-0.5,1.5-2,2.5-3.6,2.5h-20.6c-3.5,0-5.2-1.5-5.4-3.4
			C95.2,318.9,99.1,317,101.6,319.3z"/>
		<path d="M67.2,344.8c0.6,0,1-0.4,1-1v-20c0-12.9,9.9-23.9,22.8-24.7c7-0.4,13.6,2.1,18.5,7c1.1,1.1,2,2.2,2.8,3.4
			c0.3,0.5,0.9,0.6,1.4,0.3c0.5-0.3,0.6-0.9,0.3-1.4c-0.9-1.3-1.9-2.5-3.1-3.7c-5.3-5.3-12.5-8.1-20.1-7.6
			c-13.9,0.8-24.6,12.8-24.6,26.7v19.9C66.2,344.4,66.7,344.8,67.2,344.8z"/>
		<path d="M71.2,323.8c0-10.3,8.3-19.8,18.5-20.7c7.1-0.6,13.7,2.4,18,7.9c0.3,0.4,1,0.5,1.4,0.2c0.4-0.3,0.5-1,0.2-1.4
			c-4.7-6.1-12-9.4-19.7-8.7c-11.2,1-20.4,11.5-20.4,22.8l0,16.6c0,0.6,0.4,1,1,1c0.6,0,1-0.4,1-1L71.2,323.8z"/>
		<path d="M74.2,340.2c0.6,0,1-0.4,1-1v-15.9c0-9.1,7.4-16.5,16.5-16.5c5.2,0,10.1,2.5,13.2,6.6c0.3,0.4,1,0.5,1.4,0.2
			c0.4-0.3,0.5-1,0.2-1.4c-3.5-4.7-9-7.4-14.8-7.4c-10.2,0-18.5,8.3-18.5,18.5v15.9C73.2,339.8,73.7,340.2,74.2,340.2z"/>
		<path d="M78.2,340.5c0.6,0,1-0.4,1-1v-16.1c0-8.8,9.1-15.5,18.4-11.3c1.3,0.6,2.4,1.6,3.4,2.7c0.4,0.4,1,0.4,1.4,0
			c0.4-0.4,0.4-1,0-1.4c-2.7-2.9-6.6-4.6-10.6-4.6c-8,0-14.6,6.5-14.6,14.6v16.1C77.2,340,77.7,340.5,78.2,340.5z"/>
	</g>
</g>
<g opacity="5.000000e-02">
	<g>
		<path d="M183.4,117.7c3,11.2,14.5,17.8,25.7,14.8c11.2-3,17.8-14.5,14.8-25.7c-3-11.2-14.5-17.9-25.7-14.9
			C187,94.9,180.4,106.5,183.4,117.7z M198.7,93.9c10.1-2.7,20.6,3.3,23.3,13.4c2.7,10.1-3.3,20.6-13.4,23.3
			c-10.1,2.7-20.6-3.3-23.3-13.4C182.6,107,188.6,96.6,198.7,93.9z"/>
		<path d="M197.7,87.7l-1.5-5.5c-0.1-0.5-0.7-0.9-1.2-0.7c-0.5,0.1-0.9,0.7-0.7,1.2l1.5,5.5c0.1,0.5,0.7,0.9,1.2,0.7
			C197.5,88.8,197.8,88.2,197.7,87.7z"/>
		<path d="M211.5,143.2c0.5-0.1,0.9-0.7,0.7-1.2l-1.5-5.5c-0.1-0.5-0.7-0.9-1.2-0.7c-0.5,0.1-0.9,0.7-0.7,1.2l1.5,5.5
			C210.5,143.1,211,143.4,211.5,143.2z"/>
		<path d="M218.3,84.9l-2.9,5c-0.3,0.5-0.1,1.1,0.4,1.4c0.5,0.3,1.1,0.1,1.4-0.4l2.9-5c0.3-0.5,0.1-1.1-0.4-1.4
			C219.2,84.2,218.6,84.4,218.3,84.9z"/>
		<path d="M187.7,139.9c0.5,0.3,1.1,0.1,1.4-0.4l2.9-5c0.3-0.5,0.1-1.1-0.4-1.4c-0.5-0.3-1.1-0.1-1.4,0.4l-2.9,5
			C187,139,187.2,139.7,187.7,139.9z"/>
		<path d="M227,105.5c0.1,0.5,0.7,0.9,1.2,0.7l5.5-1.5c0.5-0.1,0.9-0.7,0.7-1.2s-0.7-0.9-1.2-0.7l-5.5,1.5
			C227.1,104.4,226.8,104.9,227,105.5z"/>
		<path d="M178.9,117.3l-5.5,1.5c-0.5,0.1-0.9,0.7-0.7,1.2c0.1,0.5,0.7,0.9,1.2,0.7l5.5-1.5c0.5-0.1,0.9-0.7,0.7-1.2
			S179.4,117.2,178.9,117.3z"/>
		<path d="M231.4,128.2c0.3-0.5,0.1-1.1-0.4-1.4l-5-2.9c-0.5-0.3-1.1-0.1-1.4,0.4c-0.3,0.5-0.1,1.1,0.4,1.4l5,2.9
			C230.5,128.9,231.1,128.7,231.4,128.2z"/>
		<path d="M177.3,95.9c-0.5-0.3-1.1-0.1-1.4,0.4c-0.3,0.5-0.1,1.1,0.4,1.4l5,2.9c0.5,0.3,1.1,0.1,1.4-0.4c0.3-0.5,0.1-1.1-0.4-1.4
			L177.3,95.9z"/>
	</g>
</g>
<g opacity="5.000000e-02">
	<g>
		<path d="M351.2,153.8c0,0.1,0,0.3-0.1,0.4c-0.1,0.5,0.3,1.1,0.8,1.2s1.1-0.3,1.2-0.8c0.4-2.5,2.9-4.1,5.4-3.7s4.3,2.8,3.8,5.3
			c-0.1,0.5,0.3,1.1,0.8,1.2c0,0,0.1,0,0.1,0c0,0,0,0,0.1,0c0.5,0.1,1.1-0.3,1.2-0.8c0-0.2,0.1-0.3,0.1-0.5c0-0.1,0-0.3,0.1-0.4
			c0,0,0,0,0,0c2.1-5,9.9-2.7,9,2.6c-0.1,0.5,0.3,1.1,0.8,1.2c0,0,0.1,0,0.1,0c0,0,0,0,0.1,0c0.5,0.1,1.1-0.3,0.8-0.9l1.1-0.7l0-0.2
			c0,0,1.6-2.7,3.5-2.7l-4.4,24.7l-2.3-0.4c-0.4-0.1-0.8,0.2-0.8,0.6l-1.7,9.4c-0.1,0.8,0.1,1.6,0.7,2.1c2.5,2.5,5.9,1.1,6.3-1.4
			l1.5-8.7c0,0-0.1-1-0.7-1.1l-1.1-0.2l4.4-24.7c0,0,2.6,2.2,3.4,4l0,0.2c-0.6,0.2-0.7,0.5-0.8,0.8c-0.1,0.5,0.3,1.1,0.8,0.9l0,0
			c0,0.3,0,0.3,0,0.3c0,0,0.1,0,0.1,0c0.5,0.1,1.1-0.3,1.2-0.8c0.9-5.3,9-4.8,9.3,0.6c0,0,0,0,0,0.1c-0.1,0.3-0.1,0.6-0.2,0.9
			c-0.1,0.5,0.2,1.1,0.8,1.2c0,0,0,0,0,0c0,0,0,0,0.1,0c0,0,0,0,0.1,0c0.5,0.1,1.1-0.3,1.2-0.8c0.4-2.5,2.9-4.1,5.4-3.7
			c2.6,0.5,4.3,2.8,3.8,5.3c-0.1,0.5,0.7,1.8,0.7,1.8l0,0c0,0,1.1-0.9,1.3-1.4c0.1-0.3,0.1-0.7,0.2-1c2.8-16-7.9-31.3-23.9-34
			l-0.1,0c-16-2.9-31.3,7.8-34.1,23.8C351.2,153.5,351.2,153.6,351.2,153.8z M376,189.5c0,0.7-0.6,1.2-1.4,1.1
			c-0.7-0.1-1.2-0.8-1.6-1.6l1.3-7.6l3,0.5L376,189.5z M365.4,151.8c3-11.3,9.8-19.6,16.8-20.5c-3,3.9-5.8,13.2-7.7,22.6
			C372.6,150.8,368.6,149.9,365.4,151.8z M376.6,153.8c3-14.7,6.9-22.3,8.6-22.4c1.4,0.7,2.5,9.2,0.3,24
			C383.3,152.7,379.5,152,376.6,153.8z M387.3,156.1c1.4-9.4,1.9-19.1,0.5-23.8c6.3,3.2,9.8,13.4,8.8,25
			C394.3,154.4,390.2,154,387.3,156.1z M407.8,159.2c-2.3-2.8-6.4-3.4-9.3-1.1c1-9.9-1.2-18.9-5.5-24.1
			C402.2,138.8,408.2,148.6,407.8,159.2z M376.8,131.1c-5.9,3.4-11,11.1-13.4,20.8c-2-3.1-6.1-4-9.2-2.1
			C357.5,139.7,366.4,132.5,376.8,131.1z"/>
	</g>
</g>
<g opacity="5.000000e-02">
	<g>
		<path d="M464.3,245.5H509c5.2,0,10.3-4.2,10.9-9.3c0.5-4.2-1.4-8.2-4.9-10.3c1.1-2.2,1.7-4.7,1.7-7.3c0-9-7.4-16.4-16.4-16.4
			c-8.1,0-14.9,5.9-16.2,13.7c-1.9-0.8-4-1.2-6.1-1.2c-6.3,0-12,3.8-14.6,9.5c-6.3,0.3-11.1,5.9-10.1,12.4
			C454.3,241.8,459,245.5,464.3,245.5z M500.3,203.9c7.8,0,14.2,6.4,14.2,14.2c0,2.2-0.5,4.3-1.5,6.3c-3.4-1.2-7.3-0.7-10.2,1.4
			c-3-2.2-6.7-2.7-10-1.5c-1.3-3.3-3.6-6-6.6-7.8C487.1,209.3,493.1,203.9,500.3,203.9z M456.7,231.3c1.1-3.4,4.4-5.6,7.9-5.7l0,0
			c0,0,0.1,0,0.1,0c0.5,0.1,0.9-0.2,1.1-0.7c2-5.1,7-8.6,12.5-8.6c5.9,0,11.1,3.9,12.8,9.4c0.2,0.6,0.9,0.9,1.5,0.6
			c2.9-1.4,6.6-1,9.1,1.3c0.4,0.4,1.1,0.4,1.5,0c2.5-2.2,6.3-2.7,9.2-1.2c2.8,1.4,4.6,4.3,4.5,7.5c-0.1,4.5-4.1,8.1-8.6,8.1h-43.8
			C459.2,242.2,455,237,456.7,231.3z"/>
		<path d="M500,191.9v3.4c0,0.6,0.5,1.1,1.1,1.1s1.1-0.5,1.1-1.1v-3.4c0-0.6-0.5-1.1-1.1-1.1S500,191.3,500,191.9z"/>
		<path d="M510.7,194.2l-1.7,3c-0.3,0.5-0.1,1.2,0.4,1.5c0.5,0.3,1.2,0.1,1.5-0.4l1.7-3c0.3-0.5,0.1-1.2-0.4-1.5
			C511.7,193.5,511,193.7,510.7,194.2z"/>
		<path d="M520.6,202.2c-0.3-0.5-1-0.7-1.5-0.4l-3,1.7c-0.5,0.3-0.7,1-0.4,1.5c0.3,0.5,1,0.7,1.5,0.4l3-1.7
			C520.7,203.4,520.9,202.8,520.6,202.2z"/>
		<path d="M519.2,214.7h3.4c0.6,0,1.1-0.5,1.1-1.1c0-0.6-0.5-1.1-1.1-1.1h-3.4c-0.6,0-1.1,0.5-1.1,1.1
			C518.1,214.2,518.6,214.7,519.2,214.7z"/>
		<path d="M482.4,201.8c-0.5-0.3-1.2-0.1-1.5,0.4c-0.3,0.5-0.1,1.2,0.4,1.5l3,1.7c0.5,0.3,1.2,0.1,1.5-0.4c0.3-0.5,0.1-1.2-0.4-1.5
			L482.4,201.8z"/>
		<path d="M490.6,198.3c0.3,0.5,1,0.7,1.5,0.4c0.5-0.3,0.7-1,0.4-1.5l-1.7-3c-0.3-0.5-1-0.7-1.5-0.4c-0.5,0.3-0.7,1-0.4,1.5
			L490.6,198.3z"/>
	</g>
</g>
<g opacity="5.000000e-02">
	<g>
		<path d="M448.7,2.7c0.3-4.8-5-7.7-8.9-5.2c-1.4-0.9-3.1-1.2-4.7-0.8c-1.3-2.9-4.3-4.9-7.6-4.9c-3.2,0-6.1,1.9-7.5,4.7
			c-3.3,0.3-5.9,3.5-5,7c0.6,2.6,3.1,4.4,5.8,4.4c5.3,0,16.3,0,22,0C445.8,8,448.5,5.6,448.7,2.7z M420.8,6c-1.6,0-3.1-1-3.6-2.5
			c-0.8-2.6,1.1-4.9,3.6-4.9c0.4,0,0.8-0.2,1-0.6c0.6-1.4,1.5-2.7,2.8-3.3c4-2,8,0.2,9.1,3.7c0.1,0.3,0.3,0.5,0.6,0.6
			c0.3,0.1,0.6,0.1,0.8,0c1.3-0.6,3-0.4,4.1,0.6c0.4,0.3,1,0.4,1.3,0c2.4-2.2,6.4-0.4,6.2,3c-0.1,2-1.9,3.5-3.9,3.5L420.8,6z"/>
		<path d="M451.1-22l21.9,0c2.7,0,5.2-1.8,5.8-4.4c0.8-3.6-1.7-6.7-5-7c-1.4-2.8-4.3-4.7-7.5-4.7c-3.3,0-6.2,2-7.6,4.9
			c-1.5-0.4-3.3-0.1-4.7,0.8c-3.9-2.6-9.2,0.4-8.9,5.2C445.4-24.4,448.2-22,451.1-22z M453.4-30.5c0.4,0.3,1,0.3,1.4,0
			c1.1-1,2.8-1.2,4.1-0.6c0.3,0.1,0.6,0.1,0.8,0c0.3-0.1,0.5-0.3,0.6-0.6c1.1-3.5,5.1-5.7,9.1-3.7c1.4,0.7,2.2,2,2.8,3.4
			c0.2,0.4,0.6,0.6,1.1,0.6c2.4,0,4.3,2.4,3.5,4.9c-0.5,1.5-2,2.5-3.6,2.5l-20.6,0c-3.5,0-5.2-1.5-5.4-3.4
			C447-30.8,450.9-32.7,453.4-30.5z"/>
		<path d="M419-4.9c0.6,0,1-0.4,1-1v-20c0-12.9,9.9-23.9,22.8-24.7c7-0.4,13.6,2.1,18.5,7c1.1,1.1,2,2.2,2.8,3.4
			c0.3,0.5,0.9,0.6,1.4,0.3c0.5-0.3,0.6-0.9,0.3-1.4c-0.9-1.3-1.9-2.5-3.1-3.7c-5.3-5.3-12.5-8.1-20.1-7.6
			C428.7-51.8,418-39.8,418-25.8v19.9C418-5.3,418.4-4.9,419-4.9z"/>
		<path d="M423-25.9c0-10.3,8.3-19.8,18.5-20.7c7.1-0.6,13.7,2.4,18,7.9c0.3,0.4,1,0.5,1.4,0.2c0.4-0.3,0.5-1,0.2-1.4
			c-4.7-6.1-12-9.4-19.7-8.7c-11.2,1-20.4,11.5-20.4,22.8v16.6c0,0.6,0.4,1,1,1s1-0.4,1-1V-25.9z"/>
		<path d="M426-9.5c0.6,0,1-0.4,1-1v-15.9c0-9.1,7.4-16.5,16.5-16.5c5.2,0,10.1,2.5,13.2,6.6c0.3,0.4,1,0.5,1.4,0.2
			c0.4-0.3,0.5-1,0.2-1.4c-3.5-4.7-9-7.4-14.8-7.4c-10.2,0-18.5,8.3-18.5,18.5v15.9C425-9.9,425.4-9.5,426-9.5z"/>
		<path d="M430-9.3c0.6,0,1-0.4,1-1v-16.1c0-8.8,9.1-15.5,18.4-11.3c1.3,0.6,2.4,1.6,3.4,2.7c0.4,0.4,1,0.4,1.4,0
			c0.4-0.4,0.4-1,0-1.4c-2.7-2.9-6.6-4.6-10.6-4.6c-8,0-14.6,6.5-14.6,14.6v16.1C429-9.7,429.4-9.3,430-9.3z"/>
	</g>
</g>
<g opacity="5.000000e-02">
	<g>
		<path d="M608.8,255.8c0,0.6,0.4,1,0.9,1.1l3.5,0.3l-2.7,2.3c-0.4,0.4-0.5,1-0.1,1.4c0.4,0.4,1,0.5,1.4,0.1l2.7-2.3l-0.3,3.5
			c0,0.6,0.4,1,0.9,1.1c0.6,0,1-0.4,1.1-0.9l0.3-3.5l2.3,2.7c0.4,0.4,1,0.5,1.4,0.1c0.4-0.4,0.5-1,0.1-1.4l-2.3-2.7l3.5,0.3
			c0.6,0,1-0.4,1.1-0.9s-0.4-1-0.9-1.1l-3.5-0.3l2.7-2.3c0.4-0.4,0.5-1,0.1-1.4c-0.4-0.4-1-0.5-1.4-0.1l-2.7,2.3l0.3-3.5
			c0-0.6-0.4-1-0.9-1.1c-0.6,0-1,0.4-1.1,0.9l-0.3,3.5l-2.3-2.7c-0.4-0.4-1-0.5-1.4-0.1s-0.5,1-0.1,1.4l2.3,2.7l-3.5-0.3
			C609.4,254.9,608.9,255.3,608.8,255.8z"/>
		<path d="M645.3,275.1c0,0.6,0.4,1,0.9,1.1l3.5,0.3l-2.7,2.3c-0.4,0.4-0.5,1-0.1,1.4c0.4,0.4,1,0.5,1.4,0.1l2.7-2.3l-0.3,3.5
			c0,0.6,0.4,1,0.9,1.1c0.6,0,1-0.4,1.1-0.9l0.3-3.5l2.3,2.7c0.4,0.4,1,0.5,1.4,0.1c0.4-0.4,0.5-1,0.1-1.4l-2.3-2.7l3.5,0.3
			c0.6,0,1-0.4,1.1-0.9c0-0.6-0.4-1-0.9-1.1l-3.5-0.3l2.7-2.3c0.4-0.4,0.5-1,0.1-1.4c-0.4-0.4-1-0.5-1.4-0.1l-2.7,2.3l0.3-3.5
			c0-0.6-0.4-1-0.9-1.1c-0.6,0-1,0.4-1.1,0.9l-0.3,3.5l-2.3-2.7c-0.4-0.4-1-0.5-1.4-0.1c-0.4,0.4-0.5,1-0.1,1.4l2.3,2.7l-3.5-0.3
			C645.8,274.1,645.3,274.5,645.3,275.1z"/>
		<path d="M637.2,285.8c1.5-17.5,0.3-3.2,3-34.1c0.3-3.2-2-6.2-5.4-6.5c-3.3-0.3-6.3,2.4-6.6,5.7l-3,33.8c-4.2,1.9-7.1,5.9-7.3,10.6
			c-0.3,6.4,4.5,12.1,10.8,12.9c7,0.9,13.3-4.2,13.9-11.2C643,292.7,640.9,288.3,637.2,285.8z M634.3,306.3
			c-10.6,3.9-19.5-8.5-10.9-18c0.8-0.8,1.8-1.2,3-1.4c0.5-0.1,0.8-0.5,0.8-0.9l1-11.4l2.3,0.2c0.6,0,1-0.4,1.1-0.9
			c0-0.6-0.4-1-0.9-1.1l-2.3-0.2l0.4-5l2.3,0.2c0.6,0,1-0.4,1.1-0.9s-0.4-1-0.9-1.1l-2.3-0.2l0.4-5l2.3,0.2c0.6,0,1-0.4,1.1-0.9
			c0-0.6-0.4-1-0.9-1.1l-2.3-0.2l0.5-6l2.3,0.2c0.6,0,1-0.4,1.1-0.9c0-0.6-0.4-1-0.9-1.1l-2.3-0.2l0,0.2c0.2-2.2,2-4,4.2-3.9
			c2.4,0.1,4,2.2,3.8,4.4l-0.3,2.9l-2.2-0.2c-0.5,0-1,0.4-1.1,0.9c0,0.6,0.4,1,0.9,1.1l2.2,0.2l-0.3,3l-2.2-0.2
			c-0.6,0-1,0.4-1.1,0.9s0.4,1,0.9,1.1l2.2,0.2l-0.3,4l-2.2-0.2c-0.6,0-1,0.4-1.1,0.9c0,0.6,0.4,1,0.9,1.1l2.2,0.2l-0.3,4l-2.2-0.2
			c-0.5,0-1,0.4-1.1,0.9s0.4,1,0.9,1.1l2.2,0.2l-1.2,13.6c0,0.3,0.1,0.6,0.4,0.7c5.6,3.3,7.3,11.6,1.4,17.2
			C636.1,305.4,635.2,306,634.3,306.3z"/>
		<path d="M631.9,289.2l0.9-10.6c0-0.6-0.4-1-0.9-1.1c-0.6,0-1,0.4-1.1,0.9l-0.9,10.6c-3.6,0.2-6.7,2.9-7,6.6
			c-0.3,4,2.7,7.5,6.7,7.9c4.1,0.4,7.6-2.6,8-6.6C638,293.2,635.5,290,631.9,289.2z M629.4,301.4c-3-0.3-5.2-2.8-4.9-5.7
			c0.3-2.9,2.9-5,5.8-4.7c3,0.3,5.2,2.8,4.9,5.7C635,299.6,632.4,301.7,629.4,301.4z"/>
	</g>
</g>
<g opacity="5.000000e-02">
	<g>
		<path d="M681.7,31.5c-3.1-1.5-5.3-2.1-8.1-1.7c-1.4-4.4-5.5-7.5-10.2-7.5c-1.6,0-3.2,0.4-4.7,1.1c-2.6-7.3-11.5-11.2-19.7-5.9
			c-0.5,0.3-0.9,0.7-1.3,1.1c-2.8,3.4-3.9,7.4-3.2,11.2c-0.3,0-0.6,0-1,0c-9.1,0-15.7,11-7.2,20.4c1.1,1.2,2.6,1.9,4.2,1.9h44.7
			c8.5,0,14.9-9.6,8.6-18.6C683.4,32.6,682.6,32,681.7,31.5z M675.3,50l-41.5,0c-4.6,0-8.7-3.2-9.3-7.8c-0.8-5.6,3.5-10.5,9-10.5
			c0.7,0,1.4,0.1,2.1,0.2c0.3,0.1,0.7,0,1-0.3c0.2-0.3,0.3-0.6,0.2-1c-0.5-1.7-0.6-3.4-0.3-5.2c1-5.1,5.7-8.7,10.9-8.5
			c4.7,0.3,8.6,3.5,9.7,8.1c0.1,0.3,0.3,0.6,0.6,0.7c0.3,0.1,0.6,0.1,0.9-0.1c1.4-0.9,3.1-1.4,4.8-1.4c4.1,0,7.7,2.9,8.5,6.9
			c0.1,0.3,0.2,0.5,0.4,0.6c0.2,0.1,0.5,0.2,0.8,0.1c1.2-0.3,2.2-0.3,3.2-0.2c4.4,0.6,7.9,4.3,8.1,8.7C684.6,45.7,680.5,50,675.3,50
			z"/>
		<path d="M635.3,55.9l-7.4,8.4c-0.4,0.4-0.3,1,0.1,1.4c0.4,0.4,1,0.3,1.4-0.1l7.4-8.4c0.4-0.4,0.3-1-0.1-1.4
			C636.3,55.5,635.6,55.5,635.3,55.9z"/>
		<path d="M655,65.1l-7.4,8.4c-0.4,0.4-0.3,1,0.1,1.4c0.4,0.4,1,0.3,1.4-0.1l7.4-8.4c0.4-0.4,0.3-1-0.1-1.4
			C656,64.7,655.3,64.7,655,65.1z"/>
		<path d="M667.8,76.1c0.4,0.4,1,0.3,1.4-0.1l7.4-8.4c0.4-0.4,0.3-1-0.1-1.4c-0.4-0.4-1-0.3-1.4,0.1l-7.4,8.4
			C667.3,75.1,667.4,75.7,667.8,76.1z"/>
		<path d="M669.7,56.8l-7.4,8.4c-0.4,0.4-0.3,1,0.1,1.4c0.4,0.4,1,0.3,1.4-0.1l7.4-8.4c0.4-0.4,0.3-1-0.1-1.4
			C670.7,56.3,670,56.4,669.7,56.8z"/>
		<path d="M645.7,60.1L632,74.6c-0.4,0.4-0.4,1,0,1.4c0.4,0.4,1,0.4,1.4,0l13.7-14.6c0.4-0.4,0.4-1,0-1.4
			C646.7,59.7,646.1,59.7,645.7,60.1z"/>
	</g>
</g>
<g opacity="5.000000e-02">
	<g>
		<path d="M446.9,352.4c0.3-4.8-5-7.7-8.9-5.2c-1.4-0.9-3.1-1.2-4.7-0.8c-1.3-2.9-4.3-4.9-7.6-4.9c-3.2,0-6.1,1.9-7.5,4.7
			c-3.3,0.3-5.9,3.5-5,7c0.6,2.6,3.1,4.4,5.8,4.4c5.3,0,16.3,0,22,0C444,357.7,446.7,355.4,446.9,352.4z M419,355.7
			c-1.6,0-3.1-1-3.6-2.5c-0.8-2.6,1.1-4.9,3.6-4.9c0.4,0,0.8-0.2,1-0.6c0.6-1.4,1.5-2.7,2.8-3.3c4-2,8,0.2,9.1,3.7
			c0.1,0.3,0.3,0.5,0.6,0.6c0.3,0.1,0.6,0.1,0.8,0c1.3-0.6,3-0.4,4.1,0.6c0.4,0.3,1,0.4,1.3,0c2.4-2.2,6.4-0.4,6.2,3
			c-0.1,2-1.9,3.5-3.9,3.5H419z"/>
		<path d="M449.3,327.7h21.9c2.7,0,5.2-1.8,5.8-4.4c0.8-3.6-1.7-6.7-5-7c-1.4-2.8-4.3-4.7-7.5-4.7c-3.3,0-6.2,2-7.6,4.9
			c-1.5-0.4-3.3-0.1-4.7,0.8c-3.9-2.6-9.2,0.4-8.9,5.2C443.6,325.4,446.4,327.7,449.3,327.7z M451.6,319.3c0.4,0.3,1,0.3,1.4,0
			c1.1-1,2.8-1.2,4.1-0.6c0.3,0.1,0.6,0.1,0.8,0c0.3-0.1,0.5-0.3,0.6-0.6c1.1-3.5,5.1-5.7,9.1-3.7c1.4,0.7,2.2,2,2.8,3.4
			c0.2,0.4,0.6,0.6,1.1,0.6c2.4,0,4.3,2.4,3.5,4.9c-0.5,1.5-2,2.5-3.6,2.5h-20.6c-3.5,0-5.2-1.5-5.4-3.4
			C445.2,318.9,449.1,317,451.6,319.3z"/>
		<path d="M417.2,344.8c0.6,0,1-0.4,1-1v-20c0-12.9,9.9-23.9,22.8-24.7c7-0.4,13.6,2.1,18.5,7c1.1,1.1,2,2.2,2.8,3.4
			c0.3,0.5,0.9,0.6,1.4,0.3c0.5-0.3,0.6-0.9,0.3-1.4c-0.9-1.3-1.9-2.5-3.1-3.7c-5.3-5.3-12.5-8.1-20.1-7.6
			c-13.9,0.8-24.6,12.8-24.6,26.7v19.9C416.2,344.4,416.7,344.8,417.2,344.8z"/>
		<path d="M421.2,323.8c0-10.3,8.3-19.8,18.5-20.7c7.1-0.6,13.7,2.4,18,7.9c0.3,0.4,1,0.5,1.4,0.2c0.4-0.3,0.5-1,0.2-1.4
			c-4.7-6.1-12-9.4-19.7-8.7c-11.2,1-20.4,11.5-20.4,22.8v16.6c0,0.6,0.4,1,1,1s1-0.4,1-1V323.8z"/>
		<path d="M424.2,340.2c0.6,0,1-0.4,1-1v-15.9c0-9.1,7.4-16.5,16.5-16.5c5.2,0,10.1,2.5,13.2,6.6c0.3,0.4,1,0.5,1.4,0.2
			c0.4-0.3,0.5-1,0.2-1.4c-3.5-4.7-9-7.4-14.8-7.4c-10.2,0-18.5,8.3-18.5,18.5v15.9C423.2,339.8,423.7,340.2,424.2,340.2z"/>
		<path d="M428.2,340.5c0.6,0,1-0.4,1-1v-16.1c0-8.8,9.1-15.5,18.4-11.3c1.3,0.6,2.4,1.6,3.4,2.7c0.4,0.4,1,0.4,1.4,0
			c0.4-0.4,0.4-1,0-1.4c-2.7-2.9-6.6-4.6-10.6-4.6c-8,0-14.6,6.5-14.6,14.6v16.1C427.2,340,427.7,340.5,428.2,340.5z"/>
	</g>
</g>
<g opacity="5.000000e-02">
	<g>
		<path d="M533.4,117.7c3,11.2,14.5,17.8,25.7,14.8c11.2-3,17.8-14.5,14.8-25.7c-3-11.2-14.5-17.9-25.7-14.9
			C537,94.9,530.4,106.5,533.4,117.7z M548.7,93.9c10.1-2.7,20.6,3.3,23.3,13.4c2.7,10.1-3.3,20.6-13.4,23.3
			c-10.1,2.7-20.6-3.3-23.3-13.4C532.6,107,538.6,96.6,548.7,93.9z"/>
		<path d="M547.7,87.7l-1.5-5.5c-0.1-0.5-0.7-0.9-1.2-0.7s-0.9,0.7-0.7,1.2l1.5,5.5c0.1,0.5,0.7,0.9,1.2,0.7S547.8,88.2,547.7,87.7z
			"/>
		<path d="M561.5,143.2c0.5-0.1,0.9-0.7,0.7-1.2l-1.5-5.5c-0.1-0.5-0.7-0.9-1.2-0.7c-0.5,0.1-0.9,0.7-0.7,1.2l1.5,5.5
			C560.5,143.1,561,143.4,561.5,143.2z"/>
		<path d="M568.3,84.9l-2.9,5c-0.3,0.5-0.1,1.1,0.4,1.4c0.5,0.3,1.1,0.1,1.4-0.4l2.9-5c0.3-0.5,0.1-1.1-0.4-1.4
			C569.2,84.2,568.6,84.4,568.3,84.9z"/>
		<path d="M537.7,139.9c0.5,0.3,1.1,0.1,1.4-0.4l2.9-5c0.3-0.5,0.1-1.1-0.4-1.4c-0.5-0.3-1.1-0.1-1.4,0.4l-2.9,5
			C537,139,537.2,139.7,537.7,139.9z"/>
		<path d="M577,105.5c0.1,0.5,0.7,0.9,1.2,0.7l5.5-1.5c0.5-0.1,0.9-0.7,0.7-1.2c-0.1-0.5-0.7-0.9-1.2-0.7l-5.5,1.5
			C577.1,104.4,576.8,104.9,577,105.5z"/>
		<path d="M528.9,117.3l-5.5,1.5c-0.5,0.1-0.9,0.7-0.7,1.2s0.7,0.9,1.2,0.7l5.5-1.5c0.5-0.1,0.9-0.7,0.7-1.2
			C530,117.5,529.4,117.2,528.9,117.3z"/>
		<path d="M581.4,128.2c0.3-0.5,0.1-1.1-0.4-1.4l-5-2.9c-0.5-0.3-1.1-0.1-1.4,0.4c-0.3,0.5-0.1,1.1,0.4,1.4l5,2.9
			C580.5,128.9,581.1,128.7,581.4,128.2z"/>
		<path d="M527.3,95.9c-0.5-0.3-1.1-0.1-1.4,0.4c-0.3,0.5-0.1,1.1,0.4,1.4l5,2.9c0.5,0.3,1.1,0.1,1.4-0.4c0.3-0.5,0.1-1.1-0.4-1.4
			L527.3,95.9z"/>
	</g>
</g>
</svg>
